PathFileType	4	(X/Y/Z)	C:/Users/beibeiliu/ov580/test_trc/User2\sequence.27_training_dense_right.trc
DataRate	CameraRate	NumFrames	NumMarkers	Units	OrigDataRate	OrigDataStartFrame	OrigNumFrames
120	120	18	19	mm	120	174	278
Frame#	Time	ThumbCMC			ThumbMCP			ThumbIP			ThumbTip			IndexMCP			IndexPIP			IndexTip			MiddleMCP			MiddlePIP			MiddleTip			RingMCP			RingPIP			RingTip			PinkyMCP			PinkyPIP			PinkyTip			BackHand1			BackHand2			BackHand3	
		X0	Y0	Z0	X1	Y1	Z1	X2	Y2	Z2	X3	Y3	Z3	X4	Y4	Z4	X5	Y5	Z5	X6	Y6	Z6	X7	Y7	Z7	X8	Y8	Z8	X9	Y9	Z9	X10	Y10	Z10	X11	Y11	Z11	X12	Y12	Z12	X13	Y13	Z13	X14	Y14	Z14	X15	Y15	Z15	X16	Y16	Z16	X17	Y17	Z17	X18	Y18	Z18	
173	1.44167	69.5909	-33.2659	83.8665	51.8357	-35.0143	51.3125	42.2847	-28.5057	14.5058	53.7232	-23.0786	-12.6721	65.3415	34.7673	34.041	56.1524	37.1259	4.21846	48.8799	13.4334	-20.9753	90.985	40.416	26.0998	74.4533	46.8087	-6.80465	62.3719	19.3598	-32.7626	114.048	29.0699	22.6206	102.697	40.0529	-5.5793	83.9852	21.0887	-31.3678	138.152	4.4809	22.998	135.045	24.2387	-1.58152	120.746	28.0852	-30.1207	127.38	-6.16731	65.2137	138.482	-20.9969	91.76	99.1106	-4.48013	93.3555	
174	1.45	65.8109	-36.1437	85.3363	48.1428	-37.6951	49.7218	39.5848	-37.0207	18.4341	44.6879	-32.212	-11.9891	61.9701	31.7895	32.8245	50.3326	34.595	4.07136	43.8115	13.9663	-24.7488	89.0057	37.6759	27.1246	75.1104	47.6694	-4.07554	57.9033	30.7574	-35.5662	112.745	28.6864	24.5705	102.64	43.1765	-7.16901	87.7742	31.8572	-34.6997	134.839	5.89408	23.4475	136.126	23.8835	-0.525595	125.028	31.8946	-28.8577	125.802	-3.21654	65.7446	137.782	-21.705	90.7526	98.5625	-7.17936	92.5517	
175	1.45833	64.4249	-37.0921	83.368	45.8147	-42.1548	50.372	33.7179	-41.698	17.4822	40.8158	-40.7496	-7.04706	61.8498	27.3732	31.682	49.3637	33.4204	1.99388	39.05	17.0743	-27.2683	84.5542	35.6588	27.0838	70.7412	49.658	-7.97935	63.8563	40.0921	-38.593	112.376	28.4655	22.3449	104.307	43.6357	-4.4616	92.2935	40.4037	-31.2868	136.211	6.98367	21.3629	136.169	23.5637	-1.04608	137.132	34.5705	-24.7051	127.592	-5.77943	65.3392	132.912	-22.224	91.7019	97.8833	-5.07149	90.1851	
176	1.46667	65.0219	-39.6777	82.0574	45.8565	-46.7161	50.9848	30.9369	-49.2976	17.3442	36.9389	-49.2116	-7.84765	63.6661	24.2539	24.9417	48.8654	30.6424	-1.39381	41.1871	22.33	-29.1326	86.7788	33.8122	20.3574	75.0782	47.4314	-9.34563	68.1251	47.1834	-42.4438	111.291	26.0762	20.4089	108.65	39.8635	-1.76952	100.999	45.5543	-36.2067	136.955	1.87499	20.7076	144.648	15.4066	-0.52917	146.908	29.6039	-21.3118	125.182	-6.07263	59.6393	133.682	-21.4374	91.9841	95.6818	-8.82928	86.2932	
177	1.475	64.1748	-43.2112	79.8115	45.5228	-54.3637	49.8191	35.06	-56.5473	15.9785	27.5653	-63.3492	-8.67419	63.2185	18.4742	19.1264	57.0611	25.7067	-11.356	49.3746	22.9536	-37.4524	93.7558	24.8004	15.8426	81.5781	42.136	-15.875	77.7157	49.9831	-49.0208	121.988	16.6348	14.3804	120.368	32.6671	-8.61875	114.567	43.9848	-37.0408	143.998	-7.27367	18.0566	146.828	7.7762	-1.25855	152.615	25.1202	-22.6379	127.081	-10.8714	62.1457	135.546	-22.0992	90.7682	95.5981	-9.90933	84.6623	
178	1.48333	67.7845	-43.3839	76.9523	47.7013	-56.063	44.9734	31.5157	-64.8947	16.322	27.4772	-71.0584	-8.27936	69.3006	11.8814	15.3735	62.8013	21.8823	-13.5551	55.6706	23.2202	-43.7898	97.9367	19.7967	9.96052	92.3365	35.8619	-17.9798	90.1406	48.6461	-52.6066	123.777	13.409	8.95098	129.567	25.5861	-12.3927	127.698	39.0078	-37.7975	145.066	-11.3473	17.1809	153.153	1.89682	-3.31456	163.556	16.6625	-18.3181	128.234	-13.1186	57.2939	136.305	-20.6619	87.3335	99.0365	-11.8396	77.403	
179	1.49167	66.7085	-43.2013	71.9176	51.8811	-59.2857	45.8203	38.8501	-70.3739	18.8184	33.7336	-78.5047	-6.9135	76.4831	9.96049	5.25838	65.6991	16.2137	-19.5011	67.432	18.7431	-45.4254	104.089	15.3229	6.75736	104.705	29.3453	-22.1406	104.418	42.579	-51.5136	132.547	6.70129	7.32524	132.301	21.1906	-16.0666	135.406	35.6397	-40.8872	150.509	-13.4836	13.0598	158.965	-4.73647	-4.23918	171.874	11.1744	-19.5591	132.729	-15.4879	56.6438	137.159	-22.874	88.3174	98.7303	-11.7334	75.874	
180	1.5	69.5679	-45.148	71.1859	52.1699	-63.579	47.4105	40.7829	-74.8311	15.0441	32.9354	-86.8675	-7.56453	82.2807	2.13538	5.19239	76.9417	11.1445	-25.7227	72.2464	16.0951	-51.2365	108.908	11.0769	0.91849	108.609	24.5221	-26.7819	113.846	38.2954	-54.4893	131.819	1.14104	6.09058	141.257	15.8353	-19.5947	143.561	28.1005	-39.2652	154.296	-21.3894	16.7304	166.686	-10.972	-4.2065	179.854	1.51091	-19.077	135.735	-15.0298	52.7657	137.129	-21.6255	90.2042	99.8999	-12.2139	74.2357	
181	1.50833	68.9478	-46.8418	68.189	53.0033	-65.8096	43.71	42.3442	-80.2233	17.1507	39.4113	-91.4297	-7.19492	83.6375	-2.39095	0.790886	81.5245	4.25049	-29.7397	81.3016	7.84644	-54.1083	115.158	5.05436	0.986291	116.849	19.0634	-28.9396	118.56	33.8467	-56.5714	140.996	-4.89578	6.54719	147.878	7.91235	-18.8705	147.527	22.237	-41.1502	161.269	-25.0152	15.4738	171.256	-17.2107	-5.64184	181.922	-5.41396	-16.7206	132.044	-18.4445	56.3153	134.437	-21.4969	87.1364	101.14	-16.3685	71.6797	
182	1.51667	67.0489	-48.0786	69.25	55.1276	-67.9453	46.6072	42.1563	-82.7656	11.6508	40.9231	-94.8507	-10.2421	85.5539	-4.30738	-4.103	86.7141	-0.299665	-30.8128	88.5539	1.13552	-55.6659	115.278	1.66549	0.611375	121.888	13.6953	-27.8041	122.432	30.2308	-58.0965	138.867	-7.59778	6.83871	149.864	5.13362	-18.4703	156.48	17.8058	-42.1674	162.542	-26.25	15.5354	172.654	-20.3274	-5.57505	183.619	-8.91723	-17.0436	134.25	-17.8134	52.8203	137.509	-24.4393	88.6549	99.3873	-14.341	70.887	
183	1.525	70.725	-48.5675	69.2462	55.2184	-68.9395	43.6927	42.765	-83.9836	14.7242	41.3774	-96.576	-9.22047	89.5836	-8.35221	-0.588057	84.8794	-4.83586	-30.5954	85.7224	-2.69789	-56.3722	118.877	-0.185231	-0.79917	122.289	13.5541	-30.9889	127.452	25.6895	-59.0002	142.361	-6.60553	3.03547	149.485	3.78368	-20.4565	154.231	15.6998	-42.1987	163.395	-31.157	18.5882	175.556	-23.1107	-3.25935	186.341	-8.39718	-20.6508	135.298	-19.4391	54.1326	136.55	-24.6987	89.2867	98.8358	-15.7925	68.9546	
184	1.53333	67.3133	-48.1055	67.6498	55.7029	-67.1521	42.4011	43.4348	-83.3267	13.4116	43.7683	-94.5878	-8.16165	85.3885	-9.19837	-3.85851	85.2394	-6.57559	-33.4232	87.8523	-6.42507	-57.635	117.177	0.361851	-3.04944	121.751	9.67844	-29.2278	124.956	25.603	-59.5247	139.215	-10.0035	4.6902	145.088	2.26075	-20.032	154.143	14.93	-43.0772	158.692	-31.2155	17.0762	176.317	-24.4526	-1.98166	187.706	-12.6344	-16.5304	132.75	-21.97	54.7158	132.571	-23.3394	86.4648	99.3264	-17.8214	69.8395	
185	1.54167	68.6057	-48.6331	71.4767	51.4977	-68.351	47.3779	44.7708	-81.7424	16.4662	41.7097	-93.8863	-7.89408	83.9481	-7.67256	-4.09389	81.9508	-5.25453	-29.2037	85.1801	-6.28948	-61.3374	110.566	3.16891	-3.92903	117.296	12.8815	-32.4708	119.818	24.1449	-57.107	138.15	-6.65928	1.40296	144.939	1.33307	-16.8036	146.81	16.9094	-42.0419	155.43	-29.5144	16.9457	170.841	-20.3484	-4.96604	183.104	-10.4519	-17.1651	131.721	-20.3226	52.5745	134.311	-26.1276	90.0347	97.5476	-17.0369	72.8883	
186	1.55	67.5937	-48.8414	74.4319	50.3718	-67.74	47.4086	42.7796	-80.2533	15.0883	38.7063	-92.1395	-7.03839	78.0473	-7.17876	1.48882	73.861	-5.07908	-29.3702	75.1638	-6.13461	-57.5366	106.196	2.9625	0.196547	107.652	14.417	-27.1678	111.29	29.4457	-57.8124	134.932	-4.52748	2.8364	138.934	4.24429	-18.4808	139.73	19.4309	-41.9494	156.933	-25.7402	15.0031	162.338	-17.0106	-7.11137	172.725	-3.63972	-19.4731	129.823	-20.3414	55.2389	135.243	-23.5324	88.1822	96.5188	-14.2453	69.4739	
187	1.55833	67.3306	-49.6459	78.1541	51.7082	-66.9592	48.9383	38.6673	-81.7325	20.7245	34.3388	-91.977	-3.65483	73.363	-5.55055	5.39949	60.7681	-2.42111	-25.8116	61.4972	-3.60641	-51.3914	99.8824	4.66806	1.95809	95.7699	19.2565	-29.2803	98.7489	32.1884	-56.1892	125.033	-0.658025	3.4934	125.694	9.13521	-16.9775	127.737	26.2254	-43.0706	150.277	-21.7127	11.2536	157.818	-11.7133	-9.47858	164.567	4.7454	-22.7625	131.017	-18.4256	55.5402	133.488	-22.2433	85.0664	95.1158	-15.1597	71.9911	
188	1.56667	66.171	-49.9466	82.3749	43.8024	-68.5587	56.8681	33.4189	-78.1142	22.5432	28.2894	-88.3225	0.0448034	56.6447	-2.23057	11.9605	45.1505	-1.01123	-16.5016	39.0195	-1.54341	-41.4363	85.1882	10.6474	5.19044	84.0247	21.4384	-21.0848	77.0005	37.7418	-51.1827	110.919	2.2652	6.80489	112.548	15.1068	-15.1211	110.289	31.7966	-40.0344	133.52	-18.7746	10.8156	138.316	-5.16664	-12.0136	143.891	12.581	-26.1666	124.506	-18.9097	55.815	129.742	-20.7586	83.3571	96.3026	-15.1667	78.8079	
189	1.575	59.4133	-50.2396	84.6467	39.3623	-66.1974	57.9672	25.949	-76.4001	24.5211	25.0416	-82.728	1.35482	47.9166	-2.88078	21.5635	28.7666	-0.405894	-5.96397	18.2565	-2.96125	-29.0518	74.4409	12.8677	10.9444	63.0648	27.8141	-16.2575	56.7109	40.6693	-39.6911	100.066	6.97689	6.92752	95.7812	19.966	-12.5553	94.5645	35.0186	-35.4824	127.014	-18.1338	10.5981	123.375	-1.41957	-13.4888	127.451	13.2755	-26.9395	120.059	-16.2263	54.704	127.867	-22.2056	84.6153	88.9668	-15.7277	81.2583	
190	1.58333	60.464	-51.3168	91.5645	36.9748	-64.3772	62.2583	23.0204	-73.4273	31.6674	19.735	-76.6851	3.26415	38.0117	-1.52285	27.1281	20.2737	-1.8908	2.46885	7.47704	-7.73349	-23.846	68.1219	12.4782	18.2735	54.981	29.3058	-11.2219	44.4417	43.2831	-36.5395	91.5646	8.98914	9.87714	86.6517	22.1495	-8.36751	80.1801	41.7091	-31.6438	114.885	-15.1727	13.2148	114.586	0.756845	-10.3159	117.032	16.4261	-26.5468	114.576	-15.3992	53.1061	126.768	-23.8681	86.2658	85.4425	-15.1497	85.1795	
